<svg width="7" height="13" viewBox="0 0 7 13" xmlns="http://www.w3.org/2000/svg">
  <g fill="inherit">
    <path d="M1.3113 2.51769C1.3113 2.84529 1.3113 4.30753 1.3113 4.30753H-2.58268e-08V6.49616H1.3113V13H4.00498V6.49634H5.81257C5.81257 6.49634 5.98186 5.44691 6.06392 4.29946C5.82865 4.29946 4.01517 4.29946 4.01517 4.29946C4.01517 4.29946 4.01517 3.02619 4.01517 2.80301C4.01517 2.57934 4.30886 2.27849 4.59914 2.27849C4.88887 2.27849 5.50038 2.27849 6.06676 2.27849C6.06676 1.9805 6.06676 0.950899 6.06676 7.81952e-09C5.31066 7.81952e-09 4.45046 7.81952e-09 4.0713 7.81952e-09C1.24471 -0.000151116 1.3113 2.19066 1.3113 2.51769Z" fill="inherit"/>
  </g>
</svg>
