<svg width="15" height="15" viewBox="0 0 15 15" xmlns="http://www.w3.org/2000/svg">
  <g fill="inherit" stroke="inherit">
    <path d="M9.68157 2.48735C7.69831 0.504216 4.47039 0.504216 2.48713 2.48735C0.504291 4.47092 0.504291 7.69818 2.48713 9.68175C4.25328 11.4474 7.00397 11.6365 8.98595 10.2578C9.02765 10.4551 9.12309 10.6434 9.27658 10.7969L12.1648 13.685C12.5857 14.105 13.2659 14.105 13.6846 13.685C14.1051 13.2645 14.1051 12.5844 13.6846 12.1653L10.7964 9.27635C10.6438 9.12417 10.455 9.0283 10.2577 8.9866C11.6373 7.00432 11.4482 4.25425 9.68157 2.48735ZM8.76969 8.76993C7.28901 10.2505 4.87926 10.2505 3.39901 8.76993C1.91919 7.28935 1.91919 4.88018 3.39901 3.3996C4.87926 1.91945 7.28901 1.91945 8.76969 3.3996C10.2504 4.88018 10.2504 7.28935 8.76969 8.76993Z" fill="inherit" stroke="inherit" stroke-width="0.5"/>
  </g>
</svg>
