<svg width="19" height="18" viewBox="0 0 19 18" fill="none" xmlns="http://www.w3.org/2000/svg">
  <g>
    <path d="M9.00141 0C4.03782 0 0 4.03691 0 8.99954C0 13.9628 4.03782 18 9.00141 18C13.964 18 18.0013 13.9625 18.0013 8.99954C18.0012 4.03691 13.964 0 9.00141 0ZM9.00141 16.6723C4.77113 16.6723 1.32895 13.2301 1.32895 8.99985C1.32895 4.76988 4.77113 1.3283 9.00141 1.3283C13.2314 1.3283 16.6729 4.77018 16.6729 8.99985C16.6729 13.2301 13.2313 16.6723 9.00141 16.6723Z" fill="#424242"/>
    <path d="M9.00064 2.33447C8.63461 2.33447 8.33664 2.63244 8.33664 2.99847V8.33551H3.6076C3.24127 8.33551 2.9436 8.63379 2.9436 9.00043C2.9436 9.36646 3.24157 9.66442 3.6076 9.66442H9.00064C9.36697 9.66442 9.66464 9.36646 9.66464 9.00043V2.99847C9.66464 2.63214 9.36697 2.33447 9.00064 2.33447Z" fill="#424242"/>
  </g>
</svg>
