<svg width="17" height="13" viewBox="0 0 17 13" xmlns="http://www.w3.org/2000/svg">
  <g fill="inherit">
    <path d="M16.0042 1.5381C15.4151 1.79911 14.7831 1.97613 14.119 2.05516C14.7971 1.64911 15.3161 1.00508 15.5621 0.240011C14.9261 0.616032 14.224 0.889071 13.476 1.03708C12.8769 0.398039 12.0249 4.94794e-08 11.0798 4.94794e-08C9.26665 4.94794e-08 7.79654 1.47011 7.79654 3.28225C7.79654 3.53926 7.82554 3.79028 7.88155 4.03032C5.15336 3.89329 2.73418 2.5862 1.11506 0.600027C0.832036 1.08408 0.671026 1.64809 0.671026 2.25016C0.671026 3.38926 1.25107 4.39433 2.13115 4.98236C1.5931 4.96437 1.08706 4.81635 0.644039 4.57033V4.61133C0.644039 6.20145 1.77613 7.52855 3.27723 7.83059C3.0022 7.90459 2.71219 7.9456 2.41216 7.9456C2.20016 7.9456 1.99514 7.9246 1.79412 7.88459C2.21214 9.18969 3.42425 10.1387 4.86036 10.1648C3.73727 11.0448 2.32116 11.5679 0.783056 11.5679C0.518045 11.5679 0.257009 11.5519 0 11.5229C1.45311 12.456 3.17825 13 5.03238 13C11.0718 13 14.3731 7.99761 14.3731 3.65929L14.3621 3.23426C15.0071 2.77419 15.5651 2.19616 16.0042 1.5381Z" fill="inherit"/>
  </g>
</svg>
