<svg xmlns="http://www.w3.org/2000/svg" xmlns:xlink="http://www.w3.org/1999/xlink" version="1.1" id="Capa_1" x="0px" y="0px" viewBox="-139 51 512 512" style="enable-background:new -139 51 512 512;" xml:space="preserve" class="svg-img svg-img--product replaced-svg">
<path d="M308.5,438.6c0-29.4-17.6-55.5-44.9-66.4l-93.7-37.5l5.3-3.7c27.2-19.2,43.4-50.6,43.4-84c0-4.8-0.4-9.6-1.1-14.5l-0.6-4  H237c6.3,0,11.5-5.2,11.5-11.5c0-22.7-10.4-43.5-28.6-57.2l-1.4-1.1l0-31.8c0-40-32.1-72.5-71.5-72.5H87C47.6,54.5,15.5,87,15.5,127  v29.9l0,0.2v1.7l-1.4,1.1c-18.2,13.7-28.6,34.5-28.6,57.2c0,6.3,5.2,11.5,11.5,11.5h20.1l-0.6,4c-0.7,4.9-1.1,9.7-1.1,14.5  c0,33.4,16.2,64.8,43.4,84l5.3,3.7l-93.7,37.5c-27.3,10.9-44.9,37-44.9,66.4V548c0,6.3,5.2,11.5,11.5,11.5h360  c6.3,0,11.5-5.2,11.5-11.5V438.6z M38.5,127c0-26.8,22.2-49.5,48.5-49.5h60c26.3,0,48.5,22.7,48.5,49.5v18.5h-157V127z M9.6,205.5  l1.7-4.7c6.9-19.3,25.2-32.3,45.7-32.3h120c20.5,0,38.9,13,45.7,32.3l1.7,4.7H9.6z M38.5,247c0-5.2,0.5-10.5,1.6-15.7l0.6-2.8h152.7  l0.6,2.8c1,5.2,1.6,10.5,1.6,15.7c0,43.8-35.2,79.5-78.5,79.5S38.5,290.8,38.5,247z M149.2,349.5L117,381.7l-32.2-32.2H149.2z   M225.5,536.5H8.5v-37h217V536.5z M15.6,476.5l18.5-37h165.8l18.5,37H15.6z M285.5,536.5h-37V488c0-1.8-0.4-3.6-1.2-5.1l-30-60  c-2-3.9-5.9-6.4-10.3-6.4H27c-4.4,0-8.3,2.4-10.3,6.4l-30,60c-0.8,1.6-1.2,3.4-1.2,5.1v48.5h-37v-97.9c0-19.9,12-37.6,30.5-45  l83.8-33.5l46.1,46.1c2.2,2.2,5.1,3.4,8.1,3.4c3.1,0,6-1.2,8.1-3.4l46.1-46.1l83.8,33.5c18.5,7.4,30.5,25.1,30.5,45V536.5z" fill="#364149"></path>
</svg>