<svg xmlns="http://www.w3.org/2000/svg" xmlns:xlink="http://www.w3.org/1999/xlink" version="1.1" id="Capa_1" x="0px" y="0px" viewBox="0 0 512 512" style="enable-background:new 0 0 512 512;" xml:space="preserve" class="svg-img svg-img--product replaced-svg">
<g>
	<g>
		<path d="M510.681,164.52L451.008,17.723c-2.745-6.743-9.297-11.159-16.583-11.159H77.576c-7.286,0-13.838,4.416-16.583,11.159    L1.319,164.52C0.448,166.663,0,168.954,0,171.263v316.27c0,9.888,8.014,17.902,17.902,17.902h476.196    c9.888,0,17.902-8.014,17.902-17.902v-316.27C512,168.954,511.552,166.663,510.681,164.52z M476.196,469.632H35.804V174.766    l53.82-132.398h332.752l53.82,132.398V469.632z" fill="#364149"></path>
	</g>
</g>
<g>
	<g>
		<path d="M346.704,248.839H165.296c-9.888,0-17.902,8.014-17.902,17.902s8.014,17.902,17.902,17.902h181.408    c9.888,0,17.902-8.014,17.902-17.902C364.606,256.853,356.592,248.839,346.704,248.839z" fill="#364149"></path>
	</g>
</g>
<g>
	<g>
		<rect x="238.098" y="20.886" width="35.804" height="145.604" fill="#364149"></rect>
	</g>
</g>
<g>
	<g>
		<rect x="17.902" y="153.361" width="476.196" height="35.804" fill="#364149"></rect>
	</g>
</g>
<g>
</g>
<g>
</g>
<g>
</g>
<g>
</g>
<g>
</g>
<g>
</g>
<g>
</g>
<g>
</g>
<g>
</g>
<g>
</g>
<g>
</g>
<g>
</g>
<g>
</g>
<g>
</g>
<g>
</g>
</svg>