<svg width="334" height="43" viewBox="0 0 334 43" fill="none" xmlns="http://www.w3.org/2000/svg">
<path d="M7.50356 6.34917L8.77339 3.57862C6.23373 2.42423 3.8095 1.15439 1.26983 0L0 2.77054C2.53967 3.92493 4.96389 5.19477 7.50356 6.34917Z" fill="#486972"/>
<path d="M18.9327 11.4284L20.0871 8.54244C17.5474 7.38804 15.0077 6.3491 12.4681 5.1947L11.1982 7.96524C13.8533 9.23507 16.393 10.3895 18.9327 11.4284Z" fill="#486972"/>
<path d="M30.4761 16.1615L31.6305 13.2756C29.0909 12.352 26.4358 11.1976 23.8961 10.1587L22.7417 13.0447C25.2814 14.0836 27.821 15.238 30.4761 16.1615Z" fill="#486972"/>
<path d="M42.1355 20.4327L43.1745 17.5468C40.5194 16.6232 37.9797 15.6997 35.3246 14.6608L34.2856 17.5468C36.9408 18.7011 39.4804 19.5092 42.1355 20.4327Z" fill="#486972"/>
<path d="M54.0254 24.4732L54.9489 21.4718L46.9836 18.9321L46.0601 21.8181L54.0254 24.4732Z" fill="#486972"/>
<path d="M65.9162 28.0518L66.7243 25.0504L58.759 22.7416L57.8354 25.6276L65.9162 28.0518Z" fill="#486972"/>
<path d="M77.9218 31.1686L78.6144 28.1671C75.9593 27.4745 73.3042 26.7819 70.5337 26.0892L69.7256 29.0907C72.6116 29.7833 75.2667 30.4759 77.9218 31.1686Z" fill="#486972"/>
<path d="M90.1581 33.9391L90.8507 30.9377C88.1956 30.3605 85.4251 29.6679 82.77 29.0907L81.9619 32.0921C84.617 32.7848 87.3876 33.4774 90.1581 33.9391Z" fill="#486972"/>
<path d="M102.395 36.3634L102.972 33.362C100.202 32.9002 97.5465 32.323 94.7759 31.7458L94.1987 34.7473C96.8538 35.3245 99.6244 35.9017 102.395 36.3634Z" fill="#486972"/>
<path d="M114.632 38.3259L115.094 35.3245C112.323 34.9782 109.668 34.401 106.897 34.0547L106.436 37.0561C109.091 37.5179 111.861 37.9796 114.632 38.3259Z" fill="#486972"/>
<path d="M126.983 39.9421L127.329 36.9406L119.133 35.7863L118.671 38.9031L126.983 39.9421Z" fill="#486972"/>
<path d="M139.451 41.0962L139.682 38.0948L131.371 37.2867L131.14 40.2882L139.451 41.0962Z" fill="#486972"/>
<path d="M151.802 41.9044L152.033 38.7876L143.722 38.3258L143.491 41.4427L151.802 41.9044Z" fill="#486972"/>
<path d="M164.27 42.2509L164.386 39.134L156.074 39.0186L155.958 42.02L164.27 42.2509Z" fill="#486972"/>
<path d="M176.737 42.1354L176.622 39.0186C173.851 39.0186 171.081 39.134 168.31 39.134V42.2509C171.196 42.3663 173.967 42.2509 176.737 42.1354Z" fill="#486972"/>
<path d="M189.204 41.789L189.089 38.6721C186.318 38.7876 183.548 39.0184 180.777 39.0184L180.893 42.1353C183.663 42.1353 186.434 41.9044 189.204 41.789Z" fill="#486972"/>
<path d="M201.672 40.8656L201.442 37.8641L197.286 38.2105L193.13 38.4413L193.361 41.5582L197.517 41.3273L201.672 40.8656Z" fill="#486972"/>
<path d="M214.024 39.5958L213.678 36.5944C210.908 36.9407 208.137 37.1716 205.482 37.4024L205.828 40.5193C208.483 40.2884 211.254 40.0575 214.024 39.5958Z" fill="#486972"/>
<path d="M226.376 37.9796L225.914 34.9781C223.144 35.4399 220.489 35.6708 217.718 36.1325L218.065 39.134C220.835 38.7876 223.721 38.4413 226.376 37.9796Z" fill="#486972"/>
<path d="M238.728 35.9017L238.15 32.9003C235.495 33.4775 232.725 33.8238 229.954 34.2855L230.416 37.287C233.186 36.8252 235.957 36.4789 238.728 35.9017Z" fill="#486972"/>
<path d="M250.964 33.4774L250.272 30.476C247.617 31.1686 244.846 31.6303 242.191 32.0921L242.768 35.0935C245.423 34.5163 248.194 34.17 250.964 33.4774Z" fill="#486972"/>
<path d="M263.086 30.5914L262.278 27.59C259.623 28.2826 256.852 28.8598 254.197 29.5524L254.89 32.5539C257.66 31.8612 260.316 31.284 263.086 30.5914Z" fill="#486972"/>
<path d="M275.091 27.3592L274.168 24.3578L270.243 25.5122L266.203 26.5511L267.011 29.5526L271.051 28.5136L275.091 27.3592Z" fill="#486972"/>
<path d="M286.982 23.6652L286.059 20.7792C283.403 21.5873 280.748 22.5108 278.093 23.2034L279.017 26.2048C281.672 25.3967 284.327 24.4732 286.982 23.6652Z" fill="#486972"/>
<path d="M298.756 19.6248L297.718 16.7388L289.868 19.5093L290.907 22.3953L298.756 19.6248Z" fill="#486972"/>
<path d="M310.416 15.2379L309.262 12.3519C306.722 13.3909 304.067 14.3144 301.527 15.3534L302.566 18.2393C305.221 17.3158 307.876 16.2769 310.416 15.2379Z" fill="#486972"/>
<path d="M321.96 10.505L320.69 7.7345C318.151 8.77345 315.611 9.92785 313.071 10.9668L314.226 13.8528C316.881 12.6984 319.42 11.544 321.96 10.505Z" fill="#486972"/>
<path d="M333.273 5.31022L332.004 2.53967C329.464 3.80951 327.04 4.84846 324.5 6.00285L325.77 8.7734C328.194 7.61901 330.849 6.58005 333.273 5.31022Z" fill="#486972"/>
</svg>
