<svg width="141" height="141" viewBox="0 0 141 141" fill="none" xmlns="http://www.w3.org/2000/svg">
<path d="M79.6406 43.5859C69.8404 43.5859 61.8672 51.5591 61.8672 61.3594C61.8672 61.9354 61.8958 62.5047 61.9496 63.0668C60.533 62.1545 58.8495 61.6227 57.043 61.6227C52.0309 61.6227 47.9531 65.7004 47.9531 70.7125V71.0583V72.5951V75.9167C47.9531 78.4885 49.0284 80.8124 50.7509 82.4675H49.3737C43.1022 82.4675 38 87.5697 38 93.8412V101.73C38 102.432 38.5684 103 39.2695 103H74.8164C75.5176 103 76.0859 102.432 76.0859 101.73V93.8412C76.0859 87.5697 70.9837 82.4675 64.7122 82.4675H63.335C65.0575 80.8124 66.1328 78.4885 66.1328 75.9167V72.8973C69.3953 76.7111 74.2402 79.1328 79.6406 79.1328C89.4409 79.1328 97.4141 71.1596 97.4141 61.3594C97.4141 51.5591 89.4409 43.5859 79.6406 43.5859ZM50.4922 71.0582V70.7125C50.4922 67.1003 53.4309 64.1617 57.043 64.1617C60.5407 64.1617 63.4069 66.9175 63.585 70.3717L60.2748 68.427C59.7401 68.1126 59.0568 68.2308 58.6587 68.7062C57.2637 70.3708 55.218 71.3255 53.0462 71.3255H50.4922V71.0582ZM63.424 91.871C63.6329 91.871 63.8421 91.8196 64.0321 91.7159C64.4399 91.4935 64.6935 91.066 64.6935 90.6015V85.2983C64.6935 85.1977 64.6806 85.1004 64.6585 85.0067H64.7122C69.5837 85.0067 73.5469 88.9699 73.5469 93.8413V100.461H40.5391V93.8412C40.5391 88.9698 44.5023 85.0066 49.3737 85.0066H49.3924V90.6015C49.3924 91.066 49.646 91.4934 50.0538 91.7159C50.4615 91.9384 50.9584 91.9205 51.3489 91.6692L55.7734 88.8225V91.579C55.7734 92.2802 56.3418 92.8486 57.043 92.8486C57.7441 92.8486 58.3125 92.2802 58.3125 91.579V88.8225L62.7371 91.6692C62.9458 91.8035 63.1846 91.871 63.424 91.871ZM51.9315 88.2751V85.0066H62.1894C62.1673 85.1004 62.1544 85.1976 62.1544 85.2982V88.2751L57.7298 85.4284C57.3113 85.1593 56.7745 85.1593 56.356 85.4284L51.9315 88.2751ZM63.5938 75.9167C63.5938 79.5289 60.655 82.4675 57.043 82.4675C53.4309 82.4675 50.4922 79.5289 50.4922 75.9167V73.8646H53.0464C55.6067 73.8646 58.037 72.8792 59.8631 71.1298L63.5938 73.3217V75.9167ZM79.6406 76.5938C71.2404 76.5938 64.4062 69.7596 64.4062 61.3594C64.4062 52.9591 71.2404 46.125 79.6406 46.125C88.0409 46.125 94.875 52.9591 94.875 61.3594C94.875 69.7596 88.0409 76.5938 79.6406 76.5938Z" fill="#486972"/>
<path d="M57.9405 95.3104C57.7044 95.0743 57.3769 94.9385 57.043 94.9385C56.7091 94.9385 56.3815 95.0743 56.1454 95.3104C55.9093 95.5466 55.7734 95.8741 55.7734 96.208C55.7734 96.5419 55.9093 96.8694 56.1454 97.1056C56.3815 97.3417 56.7091 97.4775 57.043 97.4775C57.3769 97.4775 57.7044 97.3417 57.9405 97.1056C58.1767 96.8694 58.3125 96.5419 58.3125 96.208C58.3125 95.8741 58.1767 95.5466 57.9405 95.3104Z" fill="#486972"/>
<path d="M69.6748 93.6055H63.9619C63.2608 93.6055 62.6924 94.1738 62.6924 94.875C62.6924 95.5762 63.2608 96.1445 63.9619 96.1445H69.6748C70.376 96.1445 70.9443 95.5762 70.9443 94.875C70.9443 94.1738 70.376 93.6055 69.6748 93.6055Z" fill="#486972"/>
<path d="M79.6408 38C74.0741 38 68.6825 39.9909 64.4591 43.6057C60.2823 47.1806 57.4898 52.1206 56.5963 57.5157C56.4818 58.2074 56.9497 58.8611 57.6414 58.9757C58.3329 59.0895 58.9866 58.6223 59.1014 57.9306C60.7702 47.8532 69.4083 40.5391 79.6408 40.5391C91.1211 40.5391 100.461 49.879 100.461 61.3594C100.461 72.8397 91.1211 82.1797 79.6408 82.1797C78.9396 82.1797 78.3712 82.7481 78.3712 83.4492C78.3712 84.1504 78.9396 84.7188 79.6408 84.7188C92.5212 84.7188 103 74.2398 103 61.3594C103 48.479 92.5212 38 79.6408 38Z" fill="#486972"/>
<path d="M75.7209 81.8116C75.7167 81.8107 75.7082 81.8091 75.703 81.8082C75.0163 81.6762 74.3534 82.1248 74.2191 82.8114C74.0844 83.4995 74.5347 84.1667 75.2229 84.3013C75.307 84.3181 75.3906 84.3262 75.4733 84.3262C76.066 84.3262 76.5961 83.9089 76.7168 83.3054C76.8543 82.6179 76.4084 81.9491 75.7209 81.8116Z" fill="#486972"/>
<path d="M86.4839 54.5368C85.9882 54.0409 85.1843 54.041 84.6884 54.5368L79.6614 59.5639L77.015 56.9175C76.5193 56.4218 75.7154 56.4218 75.2195 56.9175C74.7236 57.4133 74.7238 58.2172 75.2195 58.713L78.7638 62.2571C79.0117 62.505 79.3366 62.6289 79.6615 62.6289C79.9864 62.6289 80.3114 62.505 80.5592 62.2571L86.4839 56.3323C86.9797 55.8365 86.9797 55.0327 86.4839 54.5368Z" fill="#486972"/>
<path d="M79.6406 47.6591C78.9395 47.6591 78.3711 48.2274 78.3711 48.9286V49.8279C78.3711 50.5291 78.9395 51.0975 79.6406 51.0975C80.3418 51.0975 80.9102 50.5291 80.9102 49.8279V48.9286C80.9102 48.2274 80.3418 47.6591 79.6406 47.6591Z" fill="#486972"/>
<path d="M79.6406 71.6212C78.9395 71.6212 78.3711 72.1896 78.3711 72.8907V73.7901C78.3711 74.4912 78.9395 75.0596 79.6406 75.0596C80.3418 75.0596 80.9102 74.4912 80.9102 73.7901V72.8907C80.9102 72.1896 80.3418 71.6212 79.6406 71.6212Z" fill="#486972"/>
<path d="M92.0712 60.0898H91.1719C90.4707 60.0898 89.9023 60.6582 89.9023 61.3594C89.9023 62.0605 90.4707 62.6289 91.1719 62.6289H92.0712C92.7724 62.6289 93.3407 62.0605 93.3407 61.3594C93.3407 60.6582 92.7724 60.0898 92.0712 60.0898Z" fill="#486972"/>
<path d="M68.1093 60.0898H67.21C66.5088 60.0898 65.9404 60.6582 65.9404 61.3594C65.9404 62.0605 66.5088 62.6289 67.21 62.6289H68.1093C68.8105 62.6289 69.3788 62.0605 69.3788 61.3594C69.3788 60.6582 68.8105 60.0898 68.1093 60.0898Z" fill="#486972"/>
<path d="M136.023 80.453L140.17 81.1442C140.862 77.6883 140.862 74.0942 141 70.6383H136.853C136.715 73.8177 136.715 77.2736 136.023 80.453Z" fill="#486972"/>
<path d="M132.292 94.8295L136.162 96.3501C136.715 94.6913 137.406 93.0324 137.959 91.3736L139.342 86.2589L135.333 85.2913L134.089 90.1295L132.292 94.8295Z" fill="#486972"/>
<path d="M125.379 107.962L128.835 110.312C129.803 108.791 130.632 107.271 131.6 105.75C132.568 104.229 133.259 102.709 134.088 101.05L130.356 99.2529C129.665 100.774 128.974 102.294 128.006 103.676C127.038 105.059 126.209 106.579 125.379 107.962Z" fill="#486972"/>
<path d="M115.565 119.159L118.468 122.2L120.403 120.403L122.2 118.468L123.997 116.533C124.55 115.841 125.241 115.288 125.656 114.459L122.338 111.833C121.924 112.524 121.371 113.077 120.68 113.768L119.021 115.565L117.362 117.5L115.565 119.159Z" fill="#486972"/>
<path d="M103.676 128.006L105.75 131.6C107.27 130.632 108.791 129.803 110.312 128.835L114.597 125.656L111.97 122.338L107.823 125.379C106.441 126.347 105.059 127.176 103.676 128.006Z" fill="#486972"/>
<path d="M89.9917 133.95L91.2358 137.959C94.5535 136.715 98.0093 135.747 101.051 134.088L99.2535 130.356C96.3505 131.876 93.1711 132.844 89.9917 133.95Z" fill="#486972"/>
<path d="M75.4766 136.576L75.753 140.724C77.5501 140.724 79.2089 140.447 81.006 140.171C82.803 139.894 84.4619 139.756 86.2589 139.203L85.2913 135.194C83.6324 135.747 81.9736 135.747 80.3148 136.024C78.7942 136.3 77.1354 136.576 75.4766 136.576Z" fill="#486972"/>
<path d="M60.5476 136.024L59.8564 140.171C63.3123 140.862 66.9064 140.862 70.3623 141V136.853C67.1829 136.715 63.8653 136.715 60.5476 136.024Z" fill="#486972"/>
<path d="M46.3092 132.291L44.7886 136.162C46.4474 136.715 48.1062 137.406 49.765 137.959L54.8798 139.341L55.8474 135.332L51.0092 134.088L46.3092 132.291Z" fill="#486972"/>
<path d="M33.039 125.379L30.689 128.835C32.2096 129.803 33.7301 130.632 35.2507 131.6C36.7713 132.568 38.2919 133.259 39.9507 134.088L41.7478 130.356C40.2272 129.665 38.7066 128.974 37.3243 128.006C35.9419 127.038 34.4213 126.209 33.039 125.379Z" fill="#486972"/>
<path d="M21.8415 115.565L18.8003 118.468L20.5974 120.403L22.5326 122.2L24.4679 123.997C25.1591 124.55 25.7121 125.241 26.5415 125.656L29.1679 122.338C28.4768 121.924 27.9238 121.371 27.2326 120.679L25.4356 119.021L23.6385 117.362L21.8415 115.565Z" fill="#486972"/>
<path d="M13.1327 103.677L9.53857 105.75C10.5062 107.271 11.3356 108.791 12.3033 110.312L15.4827 114.597L18.8003 111.971L15.7592 107.824C14.7915 106.441 13.9621 105.059 13.1327 103.677Z" fill="#486972"/>
<path d="M7.05033 89.9912L3.0415 91.2353C4.28562 94.553 5.25327 98.0089 6.91209 101.05L10.6444 99.253C9.26209 96.35 8.29445 93.1706 7.05033 89.9912Z" fill="#486972"/>
<path d="M4.42391 75.4764L0.276855 75.7529C0.276855 77.55 0.553326 79.2088 0.829797 81.0059C1.10627 82.8029 1.2445 84.4617 1.79744 86.2588L5.80627 85.2912C5.25333 83.6323 5.25333 81.9735 4.97686 80.3147C4.70038 78.7941 4.42391 77.1353 4.42391 75.4764Z" fill="#486972"/>
<path d="M4.97647 60.5469L0.829412 59.8557C0.138235 63.4498 0.276471 67.044 0 70.4998H4.14706C4.42353 67.1822 4.28529 63.8645 4.97647 60.5469Z" fill="#486972"/>
<path d="M8.84688 46.3087L4.97629 44.7881C4.42335 46.4469 3.73217 48.1057 3.17923 49.7646L1.79688 54.8793L5.8057 55.8469L7.04982 51.0087L8.84688 46.3087Z" fill="#486972"/>
<path d="M15.7591 33.0381L12.3032 30.6881C11.3356 32.2087 10.5062 33.7293 9.53853 35.2499C8.57088 36.7705 7.8797 38.2911 7.05029 39.9499L10.7826 41.7469C11.4738 40.2263 12.165 38.7058 13.1326 37.3234C13.9621 35.9411 14.7915 34.4205 15.7591 33.0381Z" fill="#486972"/>
<path d="M25.4354 21.8411L22.5324 18.7999L20.7354 20.597L18.9383 22.5323L17.1412 24.4676C16.5883 25.1588 15.8971 25.7117 15.4824 26.5411L18.8001 29.1676C19.2148 28.4764 19.7677 27.9235 20.4589 27.2323L22.1177 25.4352L23.7765 23.6382L25.4354 21.8411Z" fill="#486972"/>
<path d="M37.4616 13.1322L35.3881 9.53809C33.8675 10.5057 32.3469 11.3351 30.8263 12.3028L26.541 15.4822L29.1675 18.7999L33.1763 15.7587C34.5587 14.791 36.0793 13.9616 37.4616 13.1322Z" fill="#486972"/>
<path d="M51.0085 7.04996L49.7644 3.04114C46.4468 4.28526 42.9909 5.2529 39.9497 6.91173L41.7468 10.6441C44.7879 9.26173 47.9674 8.29408 51.0085 7.04996Z" fill="#486972"/>
<path d="M65.6617 4.42355L65.3853 0.276489C63.5882 0.276489 61.9294 0.55296 60.1323 0.82943C58.3353 1.1059 56.6765 1.24414 54.8794 1.79708L55.847 5.8059C57.5059 5.25296 59.1647 5.25296 60.8235 4.97649C62.3441 4.70002 64.0029 4.42355 65.6617 4.42355Z" fill="#486972"/>
<path d="M80.4534 4.97647L81.1446 0.829412C77.6887 0.138235 74.0946 0.276471 70.5005 0V4.14706C73.8181 4.42353 77.274 4.28529 80.4534 4.97647Z" fill="#486972"/>
<path d="M94.8302 8.84712L96.3508 4.97653C94.692 4.42359 93.0332 3.73241 91.3743 3.17947L86.2596 1.79712L85.292 5.80594L90.1302 7.05006L94.8302 8.84712Z" fill="#486972"/>
<path d="M107.962 15.7587L110.312 12.3029C108.791 11.3352 107.271 10.5058 105.75 9.53816C104.229 8.57052 102.709 7.87934 101.05 7.04993L99.2529 10.7823C100.774 11.4735 102.294 12.1646 103.676 13.1323C105.059 13.9617 106.579 14.7911 107.962 15.7587Z" fill="#486972"/>
<path d="M119.159 25.4351L122.2 22.5322L120.403 20.7351L118.468 18.9381L116.533 17.141C115.841 16.5881 115.288 15.8969 114.459 15.4822L111.833 18.7998C112.524 19.2145 113.077 19.7675 113.768 20.4586L115.565 22.1175L117.362 23.7763L119.159 25.4351Z" fill="#486972"/>
<path d="M128.006 37.4617L131.6 35.3882C130.632 33.8676 129.803 32.347 128.835 30.8264L125.656 26.5411L122.338 29.1676L125.38 33.1764C126.347 34.5588 127.177 36.0794 128.006 37.4617Z" fill="#486972"/>
<path d="M133.95 51.0089L137.959 49.7648C136.715 46.4471 135.747 42.9913 134.088 39.9501L130.356 41.7471C131.877 44.7883 132.844 47.9677 133.95 51.0089Z" fill="#486972"/>
<path d="M136.577 65.6617L140.724 65.3853C140.724 63.5882 140.447 61.9294 140.171 60.1323C139.894 58.3353 139.756 56.6765 139.203 54.8794L135.194 55.847C135.747 57.5059 135.747 59.1647 136.024 60.8235C136.3 62.3441 136.577 64.0029 136.577 65.6617Z" fill="#486972"/>
</svg>
