<svg width="334" height="43" viewBox="0 0 334 43" fill="none" xmlns="http://www.w3.org/2000/svg">
<path d="M8.7734 38.6722L7.50356 35.9016C4.96389 37.056 2.42423 38.3258 0 39.4802L1.38525 42.2508C3.80948 41.0964 6.23373 39.8265 8.7734 38.6722Z" fill="#486972"/>
<path d="M20.0859 33.7081L18.9315 30.8221C16.3918 31.9765 13.8522 33.0155 11.3125 34.1699L12.5823 36.9404C15.0066 35.786 17.5462 34.7471 20.0859 33.7081Z" fill="#486972"/>
<path d="M31.5153 28.9752L30.3609 26.0892C27.7058 27.0127 25.1661 28.1671 22.6265 29.2061L23.7809 32.0921C26.3205 31.0531 28.8602 30.0142 31.5153 28.9752Z" fill="#486972"/>
<path d="M43.0587 24.704L42.0198 21.818C39.3647 22.7415 36.7096 23.665 34.1699 24.704L35.2089 27.59C37.864 26.551 40.5191 25.6275 43.0587 24.704Z" fill="#486972"/>
<path d="M54.8332 20.7791L53.9096 17.8931L45.9443 20.4327L46.9833 23.3187L54.8332 20.7791Z" fill="#486972"/>
<path d="M66.6088 17.2006L65.8008 14.3146L57.8354 16.6234L58.759 19.6248L66.6088 17.2006Z" fill="#486972"/>
<path d="M78.6142 14.0836L77.9216 11.0822C75.2665 11.7748 72.4959 12.4674 69.8408 13.1601L70.6489 16.1615C73.304 15.4688 75.9591 14.7762 78.6142 14.0836Z" fill="#486972"/>
<path d="M90.6198 11.3128L89.9272 8.3114C87.1566 8.8886 84.5015 9.58123 81.731 10.1584L82.4236 13.1599C85.3096 12.5827 87.9647 11.89 90.6198 11.3128Z" fill="#486972"/>
<path d="M102.741 9.00399L102.164 6.00256C99.3934 6.46432 96.7383 7.04152 93.9678 7.61871L94.545 10.6201C97.3155 10.0429 100.086 9.46575 102.741 9.00399Z" fill="#486972"/>
<path d="M114.978 7.04158L114.516 4.04016C111.746 4.38648 108.975 4.96368 106.205 5.30999L106.666 8.31142C109.552 7.84966 112.207 7.3879 114.978 7.04158Z" fill="#486972"/>
<path d="M127.214 5.42546L126.868 2.30859L118.672 3.46299L119.018 6.46441L127.214 5.42546Z" fill="#486972"/>
<path d="M139.566 4.27116L139.336 1.1543L131.024 1.96237L131.255 4.9638L139.566 4.27116Z" fill="#486972"/>
<path d="M151.918 3.46297L151.802 0.461548L143.375 0.923305L143.606 3.92473L151.918 3.46297Z" fill="#486972"/>
<path d="M164.27 3.11666L164.155 0.115234L155.843 0.230674L155.959 3.34754L164.27 3.11666Z" fill="#486972"/>
<path d="M176.622 3.2323L176.737 0.115439C173.967 0.115439 171.196 0 168.426 0V3.11686C171.081 3.11686 173.851 3.11686 176.622 3.2323Z" fill="#486972"/>
<path d="M188.974 3.69389L189.089 0.577031C186.319 0.461592 183.548 0.230713 180.778 0.230713L180.662 3.34758C183.433 3.23214 186.203 3.46302 188.974 3.69389Z" fill="#486972"/>
<path d="M201.326 4.50204L201.557 1.38518L197.401 1.03886L193.245 0.807983L193.014 3.92485L197.17 4.15573L201.326 4.50204Z" fill="#486972"/>
<path d="M213.562 5.77198L213.909 2.77056C211.138 2.42424 208.368 2.19336 205.597 1.84705L205.366 4.84847C208.137 5.07935 210.792 5.31023 213.562 5.77198Z" fill="#486972"/>
<path d="M225.799 7.38824L226.261 4.38682C223.49 3.92506 220.72 3.57874 217.949 3.23242L217.603 6.23385C220.374 6.58016 223.144 6.92648 225.799 7.38824Z" fill="#486972"/>
<path d="M238.035 9.46604L238.613 6.46462C235.842 5.88742 233.071 5.5411 230.416 5.07935L229.955 8.08077C232.61 8.54253 235.265 8.88884 238.035 9.46604Z" fill="#486972"/>
<path d="M250.156 11.8901L250.849 8.8887C248.194 8.19606 245.423 7.7343 242.653 7.1571L242.076 10.1585C244.731 10.7357 247.501 11.1975 250.156 11.8901Z" fill="#486972"/>
<path d="M262.163 14.6609L262.971 11.6595C260.316 10.9669 257.545 10.3897 254.89 9.69702L254.197 12.6984C256.737 13.3911 259.508 13.9683 262.163 14.6609Z" fill="#486972"/>
<path d="M274.052 17.8931L274.976 15.0072L270.935 13.8528L266.895 12.6984L266.087 15.6998L270.127 16.7387L274.052 17.8931Z" fill="#486972"/>
<path d="M285.943 21.5872L286.866 18.7012C284.211 17.8931 281.556 16.9696 278.901 16.1615L277.978 19.1629C280.633 19.8556 283.288 20.6636 285.943 21.5872Z" fill="#486972"/>
<path d="M297.602 25.5121L298.641 22.6261L290.791 19.8556L289.752 22.7416L297.602 25.5121Z" fill="#486972"/>
<path d="M309.146 29.8989L310.3 27.0129C307.761 25.9739 305.106 25.0504 302.451 24.0115L301.412 26.8975C304.067 27.9364 306.606 28.8599 309.146 29.8989Z" fill="#486972"/>
<path d="M320.575 34.6319L321.844 31.8613C319.305 30.7069 316.765 29.668 314.11 28.629L312.956 31.515C315.495 32.4385 318.035 33.5929 320.575 34.6319Z" fill="#486972"/>
<path d="M331.888 39.7111L333.158 36.9406C330.618 35.6708 328.079 34.6318 325.539 33.4774L324.269 36.248C326.809 37.4024 329.348 38.5568 331.888 39.7111Z" fill="#486972"/>
</svg>
