<svg width="141" height="141" viewBox="0 0 141 141" fill="none" xmlns="http://www.w3.org/2000/svg">
<g clip-path="url(#clip0)">
<path d="M48 93C44.141 93 41 96.141 41 100C41 100.553 41.447 101 42 101H54C54.553 101 55 100.553 55 100C55 96.141 51.859 93 48 93ZM43.101 99C43.499 97.045 45.045 95.509 47 95.11V97H49V95.11C50.955 95.51 52.501 97.045 52.899 99H43.101Z" fill="#486972"/>
<path d="M100 84H98.246C98.191 83.861 98.134 83.723 98.072 83.584L99.313 82.343C99.704 81.952 99.704 81.32 99.313 80.929L95.071 76.687C94.864 76.48 94.591 76.39 94.32 76.403C95.905 75.562 97 73.915 97 72V46C97 43.243 94.757 41 92 41H46C43.243 41 41 43.243 41 46V72C41 74.757 43.243 77 46 77H59.05L55.272 84H55H53.5C51.57 84 50 85.57 50 87.5C50 89.43 51.57 91 53.5 91H75C75 91.553 75.447 92 76 92H77.754C77.809 92.139 77.866 92.277 77.928 92.416L76.687 93.657C76.296 94.048 76.296 94.68 76.687 95.071L80.929 99.313C81.32 99.704 81.952 99.704 82.343 99.313L83.584 98.072C83.723 98.134 83.861 98.191 84 98.246V100C84 100.553 84.447 101 85 101H91C91.553 101 92 100.553 92 100V98.246C92.139 98.191 92.277 98.134 92.416 98.072L93.657 99.313C94.048 99.704 94.68 99.704 95.071 99.313L99.313 95.071C99.704 94.68 99.704 94.048 99.313 93.657L98.072 92.416C98.134 92.277 98.191 92.139 98.246 92H100C100.553 92 101 91.553 101 91V85C101 84.447 100.553 84 100 84ZM43 46C43 44.346 44.346 43 46 43H92C93.654 43 95 44.346 95 46V67H43V46ZM46 75C44.346 75 43 73.654 43 72V69H95V72C95 73.654 93.654 75 92 75H91H85H77.274H60.726H46ZM93.644 76.7L92.416 77.928C92.277 77.866 92.139 77.809 92 77.754V77C92.579 77 93.126 76.882 93.644 76.7ZM84 77V77.754C83.861 77.809 83.723 77.866 83.584 77.928L82.656 77H84ZM80.615 77L79.753 77.862L79.166 77H80.615ZM75 89H53.5C52.673 89 52 88.327 52 87.5C52 86.673 52.673 86 53.5 86H55H55.868H75V89ZM57.5445 83.999L61.322 77H76.746L78.314 79.301L76.687 80.928C76.296 81.319 76.296 81.951 76.687 82.342L77.928 83.583C77.866 83.722 77.809 83.86 77.754 83.999H76H57.5445ZM99 90H97.541C97.104 90 96.719 90.283 96.587 90.699C96.435 91.182 96.23 91.674 95.977 92.158C95.775 92.546 95.848 93.019 96.157 93.328L97.193 94.364L94.365 97.192L93.329 96.156C93.019 95.847 92.547 95.775 92.159 95.976C91.675 96.229 91.183 96.434 90.7 96.586C90.283 96.719 90 97.104 90 97.541V99H86V97.541C86 97.104 85.717 96.719 85.301 96.587C84.818 96.435 84.326 96.23 83.842 95.977C83.454 95.776 82.981 95.848 82.672 96.157L81.636 97.193L78.808 94.365L79.844 93.329C80.153 93.02 80.226 92.547 80.024 92.159C79.771 91.675 79.566 91.183 79.414 90.7C79.281 90.283 78.896 90 78.459 90H77V86H78.459C78.896 86 79.281 85.717 79.413 85.301C79.565 84.818 79.77 84.326 80.023 83.842C80.225 83.454 80.152 82.981 79.843 82.672L78.807 81.636L81.635 78.808L82.671 79.844C82.98 80.154 83.453 80.226 83.841 80.024C84.325 79.771 84.817 79.566 85.3 79.414C85.717 79.281 86 78.896 86 78.459V77H90V78.459C90 78.896 90.283 79.281 90.699 79.413C91.182 79.565 91.674 79.77 92.158 80.023C92.546 80.225 93.018 80.153 93.328 79.843L94.364 78.807L97.192 81.635L96.156 82.671C95.847 82.98 95.774 83.453 95.976 83.841C96.229 84.325 96.434 84.817 96.586 85.3C96.719 85.717 97.104 86 97.541 86H99V90Z" fill="#486972"/>
<path d="M88 82C84.691 82 82 84.691 82 88C82 91.309 84.691 94 88 94C91.309 94 94 91.309 94 88C94 84.691 91.309 82 88 82ZM88 92C85.794 92 84 90.206 84 88C84 85.794 85.794 84 88 84C90.206 84 92 85.794 92 88C92 90.206 90.206 92 88 92Z" fill="#486972"/>
<path d="M60.7068 48.707L59.2928 47.293L52.2928 54.293C51.9018 54.684 51.9018 55.316 52.2928 55.707L59.2928 62.707L60.7068 61.293L54.4138 55L60.7068 48.707Z" fill="#486972"/>
<path d="M82.707 54.293L75.707 47.293L74.293 48.707L80.586 55L74.293 61.293L75.707 62.707L82.707 55.707C83.098 55.316 83.098 54.684 82.707 54.293Z" fill="#486972"/>
<path d="M71.1019 44.5583L62.1045 62.5531L63.8933 63.4475L72.8907 45.4527L71.1019 44.5583Z" fill="#486972"/>
<path d="M82 61H80V63H82V61Z" fill="#486972"/>
<path d="M86 61H84V63H86V61Z" fill="#486972"/>
<path d="M90 61H88V63H90V61Z" fill="#486972"/>
</g>
<path d="M136.023 80.453L140.17 81.1442C140.862 77.6883 140.862 74.0942 141 70.6383H136.853C136.715 73.8177 136.715 77.2736 136.023 80.453Z" fill="#486972"/>
<path d="M132.292 94.8295L136.162 96.3501C136.715 94.6913 137.406 93.0324 137.959 91.3736L139.342 86.2589L135.333 85.2913L134.089 90.1295L132.292 94.8295Z" fill="#486972"/>
<path d="M125.379 107.962L128.835 110.312C129.803 108.791 130.632 107.271 131.6 105.75C132.568 104.229 133.259 102.709 134.088 101.05L130.356 99.2529C129.665 100.774 128.974 102.294 128.006 103.676C127.038 105.059 126.209 106.579 125.379 107.962Z" fill="#486972"/>
<path d="M115.565 119.159L118.468 122.2L120.403 120.403L122.2 118.468L123.997 116.533C124.55 115.841 125.241 115.288 125.656 114.459L122.338 111.833C121.924 112.524 121.371 113.077 120.68 113.768L119.021 115.565L117.362 117.5L115.565 119.159Z" fill="#486972"/>
<path d="M103.676 128.006L105.75 131.6C107.27 130.632 108.791 129.803 110.312 128.835L114.597 125.656L111.97 122.338L107.823 125.379C106.441 126.347 105.059 127.176 103.676 128.006Z" fill="#486972"/>
<path d="M89.9917 133.95L91.2358 137.959C94.5535 136.715 98.0093 135.747 101.051 134.088L99.2535 130.356C96.3505 131.876 93.1711 132.844 89.9917 133.95Z" fill="#486972"/>
<path d="M75.4766 136.576L75.753 140.724C77.5501 140.724 79.2089 140.447 81.006 140.171C82.803 139.894 84.4619 139.756 86.2589 139.203L85.2913 135.194C83.6324 135.747 81.9736 135.747 80.3148 136.024C78.7942 136.3 77.1354 136.576 75.4766 136.576Z" fill="#486972"/>
<path d="M60.5476 136.024L59.8564 140.171C63.3123 140.862 66.9064 140.862 70.3623 141V136.853C67.1829 136.715 63.8653 136.715 60.5476 136.024Z" fill="#486972"/>
<path d="M46.3092 132.291L44.7886 136.162C46.4474 136.715 48.1062 137.406 49.765 137.959L54.8798 139.341L55.8474 135.332L51.0092 134.088L46.3092 132.291Z" fill="#486972"/>
<path d="M33.039 125.379L30.689 128.835C32.2096 129.803 33.7301 130.632 35.2507 131.6C36.7713 132.568 38.2919 133.259 39.9507 134.088L41.7478 130.356C40.2272 129.665 38.7066 128.974 37.3243 128.006C35.9419 127.038 34.4213 126.209 33.039 125.379Z" fill="#486972"/>
<path d="M21.8415 115.565L18.8003 118.468L20.5974 120.403L22.5326 122.2L24.4679 123.997C25.1591 124.55 25.7121 125.241 26.5415 125.656L29.1679 122.338C28.4768 121.924 27.9238 121.371 27.2326 120.679L25.4356 119.021L23.6385 117.362L21.8415 115.565Z" fill="#486972"/>
<path d="M13.1327 103.677L9.53857 105.75C10.5062 107.271 11.3356 108.791 12.3033 110.312L15.4827 114.597L18.8003 111.971L15.7592 107.824C14.7915 106.441 13.9621 105.059 13.1327 103.677Z" fill="#486972"/>
<path d="M7.05033 89.9912L3.0415 91.2353C4.28562 94.553 5.25327 98.0089 6.91209 101.05L10.6444 99.253C9.26209 96.35 8.29445 93.1706 7.05033 89.9912Z" fill="#486972"/>
<path d="M4.42391 75.4764L0.276855 75.7529C0.276855 77.55 0.553326 79.2088 0.829797 81.0059C1.10627 82.8029 1.2445 84.4617 1.79744 86.2588L5.80627 85.2912C5.25333 83.6323 5.25333 81.9735 4.97686 80.3147C4.70038 78.7941 4.42391 77.1353 4.42391 75.4764Z" fill="#486972"/>
<path d="M4.97647 60.5469L0.829412 59.8557C0.138235 63.4498 0.276471 67.044 0 70.4998H4.14706C4.42353 67.1822 4.28529 63.8645 4.97647 60.5469Z" fill="#486972"/>
<path d="M8.84688 46.3087L4.97629 44.7881C4.42335 46.4469 3.73217 48.1057 3.17923 49.7646L1.79688 54.8793L5.8057 55.8469L7.04982 51.0087L8.84688 46.3087Z" fill="#486972"/>
<path d="M15.7591 33.0381L12.3032 30.6881C11.3356 32.2087 10.5062 33.7293 9.53853 35.2499C8.57088 36.7705 7.8797 38.2911 7.05029 39.9499L10.7826 41.7469C11.4738 40.2263 12.165 38.7058 13.1326 37.3234C13.9621 35.9411 14.7915 34.4205 15.7591 33.0381Z" fill="#486972"/>
<path d="M25.4354 21.8411L22.5324 18.7999L20.7354 20.597L18.9383 22.5323L17.1412 24.4676C16.5883 25.1588 15.8971 25.7117 15.4824 26.5411L18.8001 29.1676C19.2148 28.4764 19.7677 27.9235 20.4589 27.2323L22.1177 25.4352L23.7765 23.6382L25.4354 21.8411Z" fill="#486972"/>
<path d="M37.4616 13.1322L35.3881 9.53809C33.8675 10.5057 32.3469 11.3351 30.8263 12.3028L26.541 15.4822L29.1675 18.7999L33.1763 15.7587C34.5587 14.791 36.0793 13.9616 37.4616 13.1322Z" fill="#486972"/>
<path d="M51.0085 7.04996L49.7644 3.04114C46.4468 4.28526 42.9909 5.2529 39.9497 6.91173L41.7468 10.6441C44.7879 9.26173 47.9674 8.29408 51.0085 7.04996Z" fill="#486972"/>
<path d="M65.6617 4.42355L65.3853 0.276489C63.5882 0.276489 61.9294 0.55296 60.1323 0.82943C58.3353 1.1059 56.6765 1.24414 54.8794 1.79708L55.847 5.8059C57.5059 5.25296 59.1647 5.25296 60.8235 4.97649C62.3441 4.70002 64.0029 4.42355 65.6617 4.42355Z" fill="#486972"/>
<path d="M80.4534 4.97647L81.1446 0.829412C77.6887 0.138235 74.0946 0.276471 70.5005 0V4.14706C73.8181 4.42353 77.274 4.28529 80.4534 4.97647Z" fill="#486972"/>
<path d="M94.8302 8.84712L96.3508 4.97653C94.692 4.42359 93.0332 3.73241 91.3743 3.17947L86.2596 1.79712L85.292 5.80594L90.1302 7.05006L94.8302 8.84712Z" fill="#486972"/>
<path d="M107.962 15.7587L110.312 12.3029C108.791 11.3352 107.271 10.5058 105.75 9.53816C104.229 8.57052 102.709 7.87934 101.05 7.04993L99.2529 10.7823C100.774 11.4735 102.294 12.1646 103.676 13.1323C105.059 13.9617 106.579 14.7911 107.962 15.7587Z" fill="#486972"/>
<path d="M119.159 25.4351L122.2 22.5322L120.403 20.7351L118.468 18.9381L116.533 17.141C115.841 16.5881 115.288 15.8969 114.459 15.4822L111.833 18.7998C112.524 19.2145 113.077 19.7675 113.768 20.4586L115.565 22.1175L117.362 23.7763L119.159 25.4351Z" fill="#486972"/>
<path d="M128.006 37.4617L131.6 35.3882C130.632 33.8676 129.803 32.347 128.835 30.8264L125.656 26.5411L122.338 29.1676L125.38 33.1764C126.347 34.5588 127.177 36.0794 128.006 37.4617Z" fill="#486972"/>
<path d="M133.95 51.0089L137.959 49.7648C136.715 46.4471 135.747 42.9913 134.088 39.9501L130.356 41.7471C131.877 44.7883 132.844 47.9677 133.95 51.0089Z" fill="#486972"/>
<path d="M136.577 65.6617L140.724 65.3853C140.724 63.5882 140.447 61.9294 140.171 60.1323C139.894 58.3353 139.756 56.6765 139.203 54.8794L135.194 55.847C135.747 57.5059 135.747 59.1647 136.024 60.8235C136.3 62.3441 136.577 64.0029 136.577 65.6617Z" fill="#486972"/>
<defs>
<clipPath id="clip0">
<rect width="60" height="60" fill="white" transform="translate(41 41)"/>
</clipPath>
</defs>
</svg>
