<svg width="141" height="141" viewBox="0 0 141 141" fill="none" xmlns="http://www.w3.org/2000/svg">
<g clip-path="url(#clip0)">
<path d="M102.992 79.9354C102.911 78.4828 102.195 77.1524 101.027 76.2856C99.1359 74.8828 96.5127 75.029 94.7895 76.6337L84.3084 86.3948C84.3722 84.2472 82.9607 82.3518 80.8465 81.8154L68.046 78.5666C65.8014 77.9968 63.4507 78.0736 61.2479 78.7889L52.3989 81.6618V79.1155C52.3989 78.4145 51.8304 77.8461 51.1295 77.8461H39.2694C38.5684 77.8461 38 78.4146 38 79.1155V101.728C38 102.429 38.5685 102.997 39.2694 102.997H51.1296C51.8307 102.997 52.399 102.429 52.399 101.728V84.3313L62.032 81.2038C63.7784 80.6367 65.6421 80.576 67.4216 81.0273L80.2221 84.2762C81.2163 84.5286 81.864 85.4525 81.7621 86.4735C81.6567 87.529 80.7772 88.3251 79.7164 88.3251H69.5243C68.8233 88.3251 68.2549 88.8936 68.2549 89.5945C68.2549 90.2955 68.8234 90.8639 69.5243 90.8639H73.5287C73.5764 90.8694 73.6248 90.8728 73.674 90.8728H79.9695C82.0693 90.8728 84.072 90.0845 85.6089 88.6535L96.5202 78.4917C97.3473 77.7213 98.6065 77.6512 99.5142 78.3246C100.075 78.7406 100.419 79.3792 100.458 80.0766C100.497 80.7739 100.226 81.4466 99.7146 81.9226L84.6833 95.9154C83.6465 96.8805 82.2952 97.412 80.8787 97.412H61.2066C60.5055 97.412 59.9372 97.9805 59.9372 98.6814C59.9372 99.3825 60.5057 99.9509 61.2066 99.9509H80.879C82.9395 99.9509 84.9049 99.1776 86.4134 97.7736L101.444 83.7808C102.509 82.7895 103.073 81.388 102.992 79.9354ZM49.8602 100.459H40.5388V80.3851H49.8601V100.459H49.8602Z" fill="#486972"/>
<path d="M56.9819 97.784C56.7459 97.5477 56.4184 97.412 56.0834 97.412C55.7494 97.412 55.4219 97.5477 55.1859 97.784C54.9498 98.0202 54.814 98.3476 54.814 98.6814C54.814 99.0152 54.9497 99.3428 55.1859 99.5787C55.4233 99.8148 55.7495 99.9508 56.0834 99.9508C56.4185 99.9508 56.7448 99.815 56.9819 99.5787C57.2181 99.3427 57.354 99.0152 57.354 98.6814C57.354 98.3476 57.2182 98.0201 56.9819 97.784Z" fill="#486972"/>
<path d="M46.0978 96.4714C45.8604 96.2353 45.5329 96.1007 45.1991 96.1007C44.8652 96.1007 44.5377 96.2353 44.3017 96.4714C44.0655 96.7088 43.9297 97.0364 43.9297 97.3701C43.9297 97.7039 44.0654 98.0303 44.3017 98.2675C44.5391 98.5037 44.8653 98.6395 45.1991 98.6395C45.533 98.6395 45.8605 98.5037 46.0978 98.2675C46.3338 98.0314 46.4685 97.7039 46.4685 97.3701C46.4685 97.035 46.3338 96.7088 46.0978 96.4714Z" fill="#486972"/>
<path d="M65.6191 38.0026H64.2402C58.0709 38.0026 53.0518 43.0217 53.0518 49.191V52.4893C49.0681 52.8738 45.9429 56.2395 45.9429 60.3224C45.9429 64.662 49.4737 68.1927 53.8133 68.1927H54.3212C55.0222 68.1927 55.5906 67.6242 55.5906 66.9233V49.191C55.5906 44.4217 59.4708 40.5414 64.2402 40.5414H65.6191C66.3202 40.5414 66.8885 39.9729 66.8885 39.272C66.8885 38.5709 66.3202 38.0026 65.6191 38.0026ZM53.0518 63.4591V65.5996C50.4714 65.2289 48.4818 63.0036 48.4818 60.3222C48.4818 57.6409 50.4714 55.4156 53.0518 55.0449V63.4591Z" fill="#486972"/>
<path d="M70.5514 38.0026H70.4974C69.7964 38.0026 69.228 38.5711 69.228 39.272C69.228 39.973 69.7965 40.5414 70.4974 40.5414H70.5514C71.2524 40.5414 71.8208 39.9729 71.8208 39.272C71.8208 38.5709 71.2524 38.0026 70.5514 38.0026Z" fill="#486972"/>
<path d="M87.9427 52.4891V49.191C87.9427 43.0217 82.9236 38.0026 76.7543 38.0026H75.3315C74.6305 38.0026 74.0621 38.5711 74.0621 39.272C74.0621 39.973 74.6307 40.5414 75.3316 40.5414H76.7544C81.5236 40.5414 85.404 44.4216 85.404 49.191V70.4785C85.404 70.9104 85.0526 71.2618 84.6208 71.2618H75.1717C74.6737 70.0702 73.4965 69.2306 72.1266 69.2306H69.2217C67.4027 69.2306 65.9229 70.7105 65.9229 72.5294V72.5326C65.9229 74.3516 67.4027 75.8315 69.2217 75.8315H72.1266C73.496 75.8315 74.6729 74.9926 75.1711 73.8004H84.6207C86.4525 73.8004 87.9427 72.3101 87.9427 70.4783V68.155C91.9263 67.7706 95.0515 64.4048 95.0515 60.322C95.0515 56.2392 91.9263 52.8736 87.9427 52.4891ZM72.1266 73.2928H69.2217C68.8025 73.2928 68.4617 72.9518 68.4617 72.5327V72.5296C68.4617 72.1104 68.8027 71.7695 69.2217 71.7695H72.1266C72.5458 71.7695 72.8866 72.1105 72.8866 72.5329C72.8866 72.9518 72.5458 73.2928 72.1266 73.2928ZM87.9428 65.5996V63.4591V55.0449C90.5231 55.4156 92.5127 57.6409 92.5127 60.3222C92.5127 63.0036 90.5232 65.2289 87.9428 65.5996Z" fill="#486972"/>
<path d="M81.6689 52.0675H80.4842C80.3178 51.5577 80.1127 51.0623 79.8699 50.584L80.7076 49.7463C80.9457 49.5082 81.0795 49.1853 81.0795 48.8488C81.0795 48.5122 80.9457 48.1891 80.7076 47.9512L77.8819 45.1256C77.3862 44.6299 76.5825 44.63 76.0867 45.1256L75.2489 45.9631C74.7705 45.7204 74.2752 45.5152 73.7654 45.3489V44.1641C73.7654 43.463 73.1969 42.8947 72.496 42.8947H68.4997C67.7986 42.8947 67.2303 43.4632 67.2303 44.1641V45.3526C66.7217 45.5192 66.2277 45.7243 65.7506 45.9669L64.9094 45.1257C64.4137 44.6302 63.6102 44.6301 63.114 45.1257L60.2883 47.9513C60.0503 48.1894 59.9165 48.5123 59.9165 48.8489C59.9165 49.1854 60.0503 49.5084 60.2883 49.7465L61.1337 50.5918C60.8925 51.0679 60.6886 51.5606 60.5233 52.0677H59.327C58.626 52.0677 58.0576 52.6362 58.0576 53.3371V57.3332C58.0576 58.0342 58.6261 58.6026 59.327 58.6026H60.5271C60.6928 59.1084 60.8966 59.5997 61.1376 60.0746L60.2886 60.9237C60.0505 61.1617 59.9167 61.4847 59.9167 61.8212C59.9167 62.1578 60.0505 62.4808 60.2886 62.7188L63.1143 65.5445C63.6102 66.0402 64.4137 66.0402 64.9097 65.5445L65.7587 64.6955C66.2335 64.9365 66.7249 65.1404 67.2308 65.3061V66.5061C67.2308 67.2071 67.7993 67.7755 68.5002 67.7755H72.4964C73.1974 67.7755 73.7658 67.207 73.7658 66.5061V65.3098C74.2729 65.1444 74.7656 64.9406 75.2417 64.6993L76.0868 65.5447C76.5827 66.0403 77.3862 66.0403 77.8822 65.5447L80.7079 62.7189C80.9459 62.4808 81.0797 62.1579 81.0797 61.8214C81.0797 61.4848 80.9459 61.1617 80.7078 60.9238L79.8663 60.0824C80.109 59.6053 80.3142 59.1113 80.4806 58.6027H81.6691C82.3701 58.6027 82.9385 58.0342 82.9385 57.3333V53.3372C82.9383 52.636 82.37 52.0675 81.6689 52.0675ZM80.3995 56.0635H79.5173C78.9208 56.0635 78.4004 56.4827 78.2725 57.0643C78.0711 57.971 77.7148 58.8277 77.2141 59.6106C76.8929 60.1128 76.9643 60.7708 77.386 61.1923L78.0148 61.8211L76.9845 62.8515L76.3529 62.2199C75.932 61.799 75.2752 61.7272 74.7732 62.047C73.9884 62.5469 73.1307 62.9015 72.2235 63.1012C71.6414 63.2294 71.2269 63.7451 71.2269 64.341V65.2363H69.7692V64.3386C69.7692 63.7433 69.3555 63.228 68.7743 63.0992C67.8682 62.8984 67.0115 62.5431 66.2283 62.0433C65.7264 61.7227 65.0689 61.7942 64.6476 62.2156L64.0116 62.8516L62.9813 61.8212L63.6172 61.1853C64.0384 60.7642 64.1103 60.1069 63.7896 59.6046C63.2896 58.8215 62.9345 57.9648 62.7338 57.0586C62.605 56.4773 62.0897 56.0637 61.4944 56.0637H60.5966V54.6065H61.4894C62.062 54.6065 62.5664 54.2209 62.7171 53.6687C62.7226 53.6486 62.7276 53.6283 62.732 53.6079C62.9317 52.7017 63.2862 51.8444 63.7859 51.06C64.1057 50.5581 64.0337 49.9013 63.6128 49.4805L62.9813 48.8489L64.0116 47.8185L64.6404 48.4475C65.0619 48.869 65.7199 48.9404 66.222 48.6194C67.0006 48.1213 67.8518 47.7664 68.752 47.5645C69.3321 47.4471 69.7692 46.9339 69.7692 46.3195V45.4337H71.2265V46.3101C71.2265 46.8993 71.639 47.4198 72.2124 47.5549C72.218 47.5563 72.2237 47.5575 72.2293 47.5587C73.1365 47.759 73.9945 48.1146 74.779 48.6153C75.2809 48.9353 75.9384 48.8641 76.3595 48.4429L76.9841 47.8184L78.0144 48.8488L77.3917 49.4715C76.9681 49.8952 76.8994 50.5588 77.221 51.0593C77.7169 51.8375 78.0699 52.688 78.2708 53.5874C78.3873 54.1685 78.9007 54.6064 79.5159 54.6064H80.3991V56.0635H80.3995Z" fill="#486972"/>
<path d="M70.4977 50.5112C67.8379 50.5112 65.6738 52.6753 65.6738 55.3351C65.6738 57.9949 67.8379 60.1589 70.4977 60.1589C73.1575 60.1589 75.3215 57.9949 75.3215 55.3351C75.3215 52.6753 73.1575 50.5112 70.4977 50.5112ZM70.4977 57.6201C69.2378 57.6201 68.2126 56.5951 68.2126 55.3351C68.2126 54.0752 69.2377 53.05 70.4977 53.05C71.7576 53.05 72.7827 54.0751 72.7827 55.3351C72.7827 56.595 71.7576 57.6201 70.4977 57.6201Z" fill="#486972"/>
<path d="M45.1996 82.6866C44.4985 82.6866 43.9302 83.2551 43.9302 83.956V92.7152C43.9302 93.4162 44.4985 93.9846 45.1996 93.9846C45.9006 93.9846 46.469 93.4161 46.469 92.7152V83.956C46.469 83.2551 45.9005 82.6866 45.1996 82.6866Z" fill="#486972"/>
</g>
<path d="M136.023 80.453L140.17 81.1442C140.862 77.6883 140.862 74.0942 141 70.6383H136.853C136.715 73.8177 136.715 77.2736 136.023 80.453Z" fill="#486972"/>
<path d="M132.292 94.8295L136.162 96.3501C136.715 94.6913 137.406 93.0324 137.959 91.3736L139.342 86.2589L135.333 85.2913L134.089 90.1295L132.292 94.8295Z" fill="#486972"/>
<path d="M125.379 107.962L128.835 110.312C129.803 108.791 130.632 107.271 131.6 105.75C132.568 104.229 133.259 102.709 134.088 101.05L130.356 99.2529C129.665 100.774 128.974 102.294 128.006 103.676C127.038 105.059 126.209 106.579 125.379 107.962Z" fill="#486972"/>
<path d="M115.565 119.159L118.468 122.2L120.403 120.403L122.2 118.468L123.997 116.533C124.55 115.841 125.241 115.288 125.656 114.459L122.338 111.833C121.924 112.524 121.371 113.077 120.68 113.768L119.021 115.565L117.362 117.5L115.565 119.159Z" fill="#486972"/>
<path d="M103.676 128.006L105.75 131.6C107.27 130.632 108.791 129.803 110.312 128.835L114.597 125.656L111.97 122.338L107.823 125.379C106.441 126.347 105.059 127.176 103.676 128.006Z" fill="#486972"/>
<path d="M89.9917 133.95L91.2358 137.959C94.5535 136.715 98.0093 135.747 101.051 134.088L99.2535 130.356C96.3505 131.876 93.1711 132.844 89.9917 133.95Z" fill="#486972"/>
<path d="M75.4766 136.576L75.753 140.724C77.5501 140.724 79.2089 140.447 81.006 140.171C82.803 139.894 84.4619 139.756 86.2589 139.203L85.2913 135.194C83.6324 135.747 81.9736 135.747 80.3148 136.024C78.7942 136.3 77.1354 136.576 75.4766 136.576Z" fill="#486972"/>
<path d="M60.5476 136.024L59.8564 140.171C63.3123 140.862 66.9064 140.862 70.3623 141V136.853C67.1829 136.715 63.8653 136.715 60.5476 136.024Z" fill="#486972"/>
<path d="M46.3092 132.291L44.7886 136.162C46.4474 136.715 48.1062 137.406 49.765 137.959L54.8798 139.341L55.8474 135.332L51.0092 134.088L46.3092 132.291Z" fill="#486972"/>
<path d="M33.039 125.379L30.689 128.835C32.2096 129.803 33.7301 130.632 35.2507 131.6C36.7713 132.568 38.2919 133.259 39.9507 134.088L41.7478 130.356C40.2272 129.665 38.7066 128.974 37.3243 128.006C35.9419 127.038 34.4213 126.209 33.039 125.379Z" fill="#486972"/>
<path d="M21.8415 115.565L18.8003 118.468L20.5974 120.403L22.5326 122.2L24.4679 123.997C25.1591 124.55 25.7121 125.241 26.5415 125.656L29.1679 122.338C28.4768 121.924 27.9238 121.371 27.2326 120.679L25.4356 119.021L23.6385 117.362L21.8415 115.565Z" fill="#486972"/>
<path d="M13.1327 103.677L9.53857 105.75C10.5062 107.271 11.3356 108.791 12.3033 110.312L15.4827 114.597L18.8003 111.971L15.7592 107.824C14.7915 106.441 13.9621 105.059 13.1327 103.677Z" fill="#486972"/>
<path d="M7.05033 89.9912L3.0415 91.2353C4.28562 94.553 5.25327 98.0089 6.91209 101.05L10.6444 99.253C9.26209 96.35 8.29445 93.1706 7.05033 89.9912Z" fill="#486972"/>
<path d="M4.42391 75.4764L0.276855 75.7529C0.276855 77.55 0.553326 79.2088 0.829797 81.0059C1.10627 82.8029 1.2445 84.4617 1.79744 86.2588L5.80627 85.2912C5.25333 83.6323 5.25333 81.9735 4.97686 80.3147C4.70038 78.7941 4.42391 77.1353 4.42391 75.4764Z" fill="#486972"/>
<path d="M4.97647 60.5469L0.829412 59.8557C0.138235 63.4498 0.276471 67.044 0 70.4998H4.14706C4.42353 67.1822 4.28529 63.8645 4.97647 60.5469Z" fill="#486972"/>
<path d="M8.84688 46.3087L4.97629 44.7881C4.42335 46.4469 3.73217 48.1057 3.17923 49.7646L1.79688 54.8793L5.8057 55.8469L7.04982 51.0087L8.84688 46.3087Z" fill="#486972"/>
<path d="M15.7591 33.0381L12.3032 30.6881C11.3356 32.2087 10.5062 33.7293 9.53853 35.2499C8.57088 36.7705 7.8797 38.2911 7.05029 39.9499L10.7826 41.7469C11.4738 40.2263 12.165 38.7058 13.1326 37.3234C13.9621 35.9411 14.7915 34.4205 15.7591 33.0381Z" fill="#486972"/>
<path d="M25.4354 21.8411L22.5324 18.7999L20.7354 20.597L18.9383 22.5323L17.1412 24.4676C16.5883 25.1588 15.8971 25.7117 15.4824 26.5411L18.8001 29.1676C19.2148 28.4764 19.7677 27.9235 20.4589 27.2323L22.1177 25.4352L23.7765 23.6382L25.4354 21.8411Z" fill="#486972"/>
<path d="M37.4616 13.1322L35.3881 9.53809C33.8675 10.5057 32.3469 11.3351 30.8263 12.3028L26.541 15.4822L29.1675 18.7999L33.1763 15.7587C34.5587 14.791 36.0793 13.9616 37.4616 13.1322Z" fill="#486972"/>
<path d="M51.0085 7.04996L49.7644 3.04114C46.4468 4.28526 42.9909 5.2529 39.9497 6.91173L41.7468 10.6441C44.7879 9.26173 47.9674 8.29408 51.0085 7.04996Z" fill="#486972"/>
<path d="M65.6617 4.42355L65.3853 0.276489C63.5882 0.276489 61.9294 0.55296 60.1323 0.82943C58.3353 1.1059 56.6765 1.24414 54.8794 1.79708L55.847 5.8059C57.5059 5.25296 59.1647 5.25296 60.8235 4.97649C62.3441 4.70002 64.0029 4.42355 65.6617 4.42355Z" fill="#486972"/>
<path d="M80.4534 4.97647L81.1446 0.829412C77.6887 0.138235 74.0946 0.276471 70.5005 0V4.14706C73.8181 4.42353 77.274 4.28529 80.4534 4.97647Z" fill="#486972"/>
<path d="M94.8302 8.84712L96.3508 4.97653C94.692 4.42359 93.0332 3.73241 91.3743 3.17947L86.2596 1.79712L85.292 5.80594L90.1302 7.05006L94.8302 8.84712Z" fill="#486972"/>
<path d="M107.962 15.7587L110.312 12.3029C108.791 11.3352 107.271 10.5058 105.75 9.53816C104.229 8.57052 102.709 7.87934 101.05 7.04993L99.2529 10.7823C100.774 11.4735 102.294 12.1646 103.676 13.1323C105.059 13.9617 106.579 14.7911 107.962 15.7587Z" fill="#486972"/>
<path d="M119.159 25.4351L122.2 22.5322L120.403 20.7351L118.468 18.9381L116.533 17.141C115.841 16.5881 115.288 15.8969 114.459 15.4822L111.833 18.7998C112.524 19.2145 113.077 19.7675 113.768 20.4586L115.565 22.1175L117.362 23.7763L119.159 25.4351Z" fill="#486972"/>
<path d="M128.006 37.4617L131.6 35.3882C130.632 33.8676 129.803 32.347 128.835 30.8264L125.656 26.5411L122.338 29.1676L125.38 33.1764C126.347 34.5588 127.177 36.0794 128.006 37.4617Z" fill="#486972"/>
<path d="M133.95 51.0089L137.959 49.7648C136.715 46.4471 135.747 42.9913 134.088 39.9501L130.356 41.7471C131.877 44.7883 132.844 47.9677 133.95 51.0089Z" fill="#486972"/>
<path d="M136.577 65.6617L140.724 65.3853C140.724 63.5882 140.447 61.9294 140.171 60.1323C139.894 58.3353 139.756 56.6765 139.203 54.8794L135.194 55.847C135.747 57.5059 135.747 59.1647 136.024 60.8235C136.3 62.3441 136.577 64.0029 136.577 65.6617Z" fill="#486972"/>
<defs>
<clipPath id="clip0">
<rect width="65" height="65" fill="white" transform="translate(38 38)"/>
</clipPath>
</defs>
</svg>
