<svg width="18" height="18" viewBox="0 0 18 18" fill="none" xmlns="http://www.w3.org/2000/svg">
<path d="M13.5946 11.1503C13.2422 10.7666 12.817 10.5615 12.3664 10.5615C11.9194 10.5615 11.4906 10.7628 11.1236 11.1465L9.97533 12.3432C9.88085 12.2901 9.78637 12.2407 9.69553 12.1913C9.56471 12.1229 9.44116 12.0583 9.33578 11.9899C8.26016 11.2757 7.28265 10.3449 6.34512 9.14066C5.89089 8.54041 5.58564 8.03514 5.36398 7.52227C5.66195 7.23735 5.93813 6.94102 6.20703 6.6561C6.30878 6.54972 6.41053 6.43955 6.51227 6.33318C7.27538 5.53538 7.27538 4.50205 6.51227 3.70425L5.52023 2.66712C5.40758 2.54935 5.2913 2.42778 5.18229 2.30621C4.96425 2.07067 4.73532 1.82754 4.49912 1.59959C4.14664 1.23489 3.72511 1.04114 3.28178 1.04114C2.83845 1.04114 2.40966 1.23489 2.04627 1.59959C2.04264 1.60339 2.04264 1.60339 2.03901 1.60719L0.803498 2.91026C0.338365 3.39653 0.0730943 3.98918 0.0149528 4.6768C-0.0722596 5.78612 0.240251 6.81945 0.480085 7.49568C1.06877 9.15586 1.94816 10.6945 3.25998 12.3432C4.85161 14.3301 6.76664 15.8991 8.95422 17.0046C9.79001 17.4187 10.9056 17.9088 12.152 17.9924C12.2283 17.9962 12.3083 18 12.3809 18C13.2204 18 13.9253 17.6847 14.4777 17.0578C14.4813 17.0502 14.4886 17.0464 14.4922 17.0388C14.6812 16.7995 14.8992 16.5829 15.1281 16.3512C15.2844 16.1954 15.4443 16.0321 15.6005 15.8611C15.9603 15.4698 16.1492 15.014 16.1492 14.5467C16.1492 14.0756 15.9566 13.6235 15.5896 13.2436L13.5946 11.1503ZM14.8956 15.1507C14.8919 15.1507 14.8919 15.1545 14.8956 15.1507C14.7538 15.3103 14.6085 15.4546 14.4522 15.6142C14.216 15.8497 13.9762 16.0967 13.7509 16.374C13.3839 16.7843 12.9515 16.978 12.3846 16.978C12.3301 16.978 12.2719 16.978 12.2174 16.9742C11.1382 16.9021 10.1352 16.4614 9.38302 16.0853C7.32626 15.0443 5.52023 13.5665 4.01945 11.6936C2.78031 10.1322 1.95179 8.68857 1.40308 7.13857C1.06514 6.19262 0.941584 5.4556 0.996092 4.76038C1.03243 4.3159 1.19595 3.94739 1.49756 3.63207L2.73671 2.33661C2.91476 2.16185 3.10372 2.06687 3.28905 2.06687C3.51798 2.06687 3.70331 2.21124 3.81959 2.33281C3.82323 2.33661 3.82686 2.3404 3.83049 2.3442C4.05216 2.56075 4.26292 2.78489 4.48459 3.02423C4.59724 3.1458 4.71352 3.26737 4.8298 3.39273L5.82184 4.42987C6.20703 4.83256 6.20703 5.20487 5.82184 5.60757C5.71646 5.71774 5.61471 5.82791 5.50933 5.93428C5.20409 6.261 4.91338 6.56492 4.59724 6.86124C4.58997 6.86884 4.5827 6.87264 4.57907 6.88024C4.26656 7.20695 4.3247 7.52607 4.39011 7.74262C4.39374 7.75401 4.39737 7.76541 4.40101 7.77681C4.65901 8.43024 5.0224 9.04568 5.57474 9.7789L5.57838 9.78269C6.58132 11.0744 7.63877 12.0811 8.80523 12.8523C8.95422 12.9511 9.10684 13.0309 9.2522 13.1068C9.38302 13.1752 9.50657 13.2398 9.61195 13.3082C9.62648 13.3158 9.64102 13.3272 9.65555 13.3348C9.77911 13.3994 9.89539 13.4298 10.0153 13.4298C10.3169 13.4298 10.5059 13.2322 10.5677 13.1676L11.8104 11.8684C11.934 11.7392 12.1302 11.5834 12.3591 11.5834C12.5844 11.5834 12.7698 11.7316 12.8824 11.8608C12.886 11.8646 12.886 11.8646 12.8897 11.8684L14.8919 13.9616C15.2662 14.3491 15.2662 14.748 14.8956 15.1507Z" fill="#424242"/>
<path d="M9.29208 4.28175C10.2441 4.44891 11.109 4.91999 11.7994 5.6418C12.4899 6.36361 12.9368 7.26778 13.1004 8.26313C13.1403 8.51386 13.3475 8.68862 13.5837 8.68862C13.6127 8.68862 13.6382 8.68482 13.6672 8.68102C13.9361 8.63543 14.1142 8.3695 14.0706 8.08837C13.8744 6.88408 13.3293 5.78616 12.4971 4.91619C11.665 4.04621 10.6148 3.47636 9.46287 3.27121C9.19396 3.22562 8.94323 3.41177 8.89599 3.6891C8.84875 3.96643 9.02317 4.23616 9.29208 4.28175Z" fill="#424242"/>
<path d="M17.1848 7.94018C16.8614 5.95709 15.9675 4.15255 14.5939 2.71652C13.2203 1.28049 11.4942 0.345932 9.59732 0.00781895C9.33205 -0.0415684 9.08132 0.148383 9.03408 0.425712C8.99047 0.706839 9.16853 0.968972 9.43743 1.01836C11.1308 1.31848 12.6752 2.15807 13.9034 3.43834C15.1317 4.72241 15.9311 6.33699 16.2182 8.10734C16.2582 8.35807 16.4653 8.53283 16.7015 8.53283C16.7306 8.53283 16.756 8.52903 16.7851 8.52523C17.0503 8.48344 17.232 8.21751 17.1848 7.94018Z" fill="#424242"/>
</svg>
